<svg width="506" height="225" viewBox="0 0 506 225" fill="none" xmlns="http://www.w3.org/2000/svg">
<path d="M103.901 167.224C103.045 158.454 92.0865 167.597 78.0857 167.337C72.2777 167.337 67.7481 171.005 65.2798 175.377C65.272 175.392 65.2641 175.406 65.2565 175.421C63.0107 179.45 62.2111 183.996 62.2111 188.668C62.2111 198.165 64.2973 207.073 68.5997 214.905H68.6019C68.603 214.905 68.6041 214.905 68.6063 214.916C68.6086 214.916 68.6097 214.927 68.6119 214.927C71.0424 219.336 75.4606 223.946 81.8549 223.946C84.9337 223.946 87.5321 222.803 89.6957 221.219C91.7804 222.781 94.3121 223.946 97.3778 223.946C101.182 223.946 104.372 222.269 106.689 220.083H106.69C108.835 218.057 110.298 215.652 111.484 213.156H111.485C113.296 209.349 114.673 205.114 115.724 200.457C116.816 195.744 117.415 191.266 117.415 186.982C117.415 182.894 117.005 179.102 115.654 175.549C115.652 175.549 115.652 175.537 115.65 175.537C115.574 175.338 115.485 175.144 115.383 174.957C113.516 170.624 109.658 167.568 104.647 167.284C104.4 167.245 104.151 167.225 103.902 167.225L103.901 167.224ZM68.5997 214.904L68.5227 214.758C68.5475 214.807 68.5732 214.856 68.5997 214.904ZM65.2565 175.42C65.2487 175.434 65.2419 175.446 65.2347 175.459C65.2269 175.474 65.2198 175.488 65.2122 175.503L65.2565 175.42ZM103.894 176.709H103.901C104.45 176.709 106.518 178.202 106.782 178.9C106.783 178.9 106.785 178.911 106.787 178.911H106.788C107.558 180.935 107.93 183.543 107.93 186.976C107.93 188.402 107.797 189.933 107.627 191.493C105.358 189.132 101.435 189.728 99.9682 192.655C99.8079 192.976 99.6845 193.314 99.6002 193.662C99.4867 194.116 99.5385 193.922 99.5575 193.86H99.5567L99.5522 193.878H99.553C99.5644 193.833 99.5117 194.089 99.5359 193.96C99.4432 194.478 99.4375 195.007 99.5187 195.527C99.2086 195.763 98.9288 196.037 98.6856 196.342C98.4872 196.591 98.5325 196.523 98.6078 196.456C98.7783 196.305 98.2862 196.516 98.5005 196.516C98.4637 196.516 98.4801 196.533 98.4539 196.536C98.4197 196.464 98.4224 196.425 98.3201 196.292C98.0564 195.95 97.9555 195.757 97.6573 195.107C97.1343 193.968 96.5511 192.322 95.8574 190.036C95.8566 190.036 95.8562 190.036 95.8551 190.024C95.8548 190.024 95.8544 190.013 95.854 190.013L95.7404 189.642C94.3804 185.207 88.1175 185.161 86.6932 189.577L85.195 194.228C85.1861 194.254 85.1782 194.278 85.1701 194.304C84.9065 195.134 84.7801 195.466 84.5198 195.91C84.3519 196.197 84.4216 196.097 84.3121 196.189C84.3775 196.123 83.9756 195.873 84.1573 196.093C83.9182 195.804 83.9569 195.86 83.7583 195.289C82.8816 192.568 82.3297 189.225 82.0774 185.274C84.1738 187.637 87.9508 187.329 89.6358 184.657C89.9797 184.111 90.0739 183.999 90.0107 184.066H90.0115C90.1704 183.898 91.1886 183.444 91.358 183.444C91.4521 183.444 92.2013 183.77 92.4166 183.898C92.4951 183.997 92.4961 183.999 92.6446 184.187C95.481 187.771 101.246 185.663 101.103 181.095C101.085 180.528 101.052 179.878 101.052 180.048C101.052 178.813 101.267 178.058 101.767 177.483C102.076 177.128 103.144 176.698 103.893 176.696L103.894 176.709ZM99.6914 193.91L107.025 195.35C106.964 195.684 106.911 196.012 106.843 196.351L105.791 195.992C104.736 194.909 103.229 194.395 101.732 194.606L99.6914 193.91ZM89.1709 204.633H89.1717H89.1709ZM89.6866 205.989C90.2326 207.528 90.7831 208.962 91.3683 210.115C90.3086 209.724 89.144 209.724 88.0842 210.115C88.6587 208.961 89.1782 207.528 89.6866 205.988V205.989ZM81.7471 206.043C81.6903 206.043 81.6236 206.06 81.565 206.064H81.5658C81.6347 206.064 81.6737 206.046 81.7471 206.044V206.043ZM82.8236 206.129C82.7853 206.118 82.818 206.129 82.8461 206.129C82.9014 206.142 82.9819 206.159 83.0585 206.18C83.0277 206.168 82.8412 206.128 82.8235 206.124L82.8236 206.129ZM83.1013 206.201C83.3911 206.28 83.673 206.386 83.8978 206.497C84.139 206.616 84.1993 206.694 84.3436 206.8C83.924 206.597 83.1365 206.217 83.1013 206.201ZM84.6944 206.957C85.0189 207.22 85.3468 207.528 85.6698 207.966C85.8518 208.213 86.0245 208.497 86.1723 208.824C86.32 209.15 86.5169 209.934 86.5169 209.934C86.5168 209.933 86.4374 210.584 86.3582 211.228C86.178 211.41 86.0128 211.606 85.8643 211.815C85.5216 212.297 85.4698 212.383 85.7203 212.046C84.7931 213.294 83.5725 214.1 82.4985 214.349C83.0013 212.656 84.5704 207.371 84.6453 207.119C84.7055 207.309 84.7642 207.49 84.7753 207.54C84.7945 207.627 84.7964 207.637 84.7962 207.636C84.7592 207.452 84.7115 207.271 84.6531 207.093C84.6534 207.093 84.673 207.025 84.6733 207.024C84.6918 207.041 84.7582 207.077 84.7728 207.092C84.8159 207.133 84.678 206.941 84.6943 206.957L84.6944 206.957ZM94.8726 210.16C96.1233 210.447 97.3952 210.739 97.3952 210.739C97.3952 210.739 97.4091 213.191 97.4161 214.453C97.4048 214.453 97.3885 214.464 97.3773 214.464C96.4806 214.464 95.465 213.929 94.5171 212.957L94.8726 210.16Z" fill="#3F1F10"/>
<path d="M112.419 162.601C107.852 162.601 107.298 169.34 104.602 173.135H104.601C104.57 173.177 104.541 173.221 104.511 173.264C102.15 176.715 101.485 180.663 101.485 184.339C101.485 189.882 102.294 197.732 103.81 208.731C103.813 208.749 103.815 208.766 103.817 208.783C103.817 208.783 103.817 208.783 103.818 208.795C103.82 208.809 103.821 208.822 103.823 208.837C104.284 212.063 104.554 214.436 105.66 217.089C105.7 217.185 105.741 217.28 105.784 217.375H105.785C106.74 219.458 108.208 220.894 109.899 222.01C111.589 223.126 113.559 223.949 115.953 223.949C120.212 223.949 123.262 221.957 125.282 218.651H125.283C126.764 216.228 127.199 213.873 127.574 211.834C128.335 207.705 128.998 203.064 129.578 197.878C129.579 197.878 129.579 197.867 129.579 197.867L129.58 197.856C129.585 197.809 129.59 197.764 129.593 197.717C130.164 192.549 130.478 188.374 130.478 184.952C130.478 181.457 130.231 177.667 128.063 174.081C125.561 169.928 124.519 154.634 119.453 154.634L112.419 162.601ZM127.574 211.835L127.509 212.13C127.534 212.032 127.555 211.934 127.574 211.835ZM112.244 182.62C112.271 182.588 112.314 182.592 112.328 182.62C112.331 182.62 112.338 182.639 112.341 182.642C112.356 182.71 112.365 182.738 112.383 182.832C112.389 182.87 112.392 182.971 112.398 183.013C112.26 182.809 112.209 182.663 112.244 182.62L112.244 182.62ZM112.722 203.436C114.554 205.218 117.469 205.228 119.313 203.457C118.978 205.83 118.625 208.063 118.249 210.106C118.248 210.106 118.247 210.117 118.247 210.117C118.247 210.117 118.247 210.128 118.246 210.128C117.869 212.18 117.775 212.757 117.191 213.713C117.258 213.601 115.78 214.473 115.953 214.473C116.061 214.473 115.56 214.391 115.123 214.103C114.688 213.816 114.376 213.355 114.411 213.434C113.888 212.174 113.681 210.778 113.214 207.513C113.214 207.513 113.214 207.513 113.214 207.502C112.995 205.918 112.909 204.89 112.723 203.441L112.722 203.436Z" fill="#3F1F10"/>
<path d="M123.704 167.152C119.448 167.152 116.216 169.25 114.102 172.287C112.286 174.899 111.598 177.857 111.598 180.608C111.598 185.39 113.425 189.949 116.56 193.476C116.563 193.48 116.566 193.484 116.568 193.487C118.143 195.254 120.066 196.535 122.126 197.454C122.283 201.463 122.966 205.936 124.118 211.242C124.118 211.242 124.119 211.242 124.119 211.242C124.119 211.242 124.119 211.242 124.12 211.242C124.656 213.734 125.022 215.686 126.071 217.901C126.153 218.074 126.241 218.245 126.334 218.413C126.334 218.413 126.335 218.413 126.336 218.413C128.321 221.987 131.409 224.032 135.797 224.032C140.083 224.032 143 221.723 144.784 219.185C146.208 217.159 146.91 215.035 147.396 213.141C147.398 213.134 147.4 213.127 147.402 213.12C147.402 213.12 147.403 213.12 147.403 213.108H147.404C148.613 208.336 149.341 203.714 149.587 199.226C152.691 198.842 155.415 197.376 157.369 194.424C159.179 191.689 159.488 188.711 159.488 186.613C159.488 181.93 158.033 177.25 154.921 173.554C151.743 169.736 147.036 167.42 141.983 167.42C140.578 167.42 139.348 167.582 137.859 167.783C137.855 167.783 137.852 167.783 137.848 167.783C134.742 168.206 132.32 168.375 131.972 168.375C131.275 168.375 129.67 168.199 127.62 167.686C126.625 167.438 125.282 167.138 123.704 167.138L123.704 167.152ZM116.56 193.476L116.455 193.352C116.489 193.394 116.524 193.436 116.56 193.476ZM140.071 189.684C140.886 189.684 141.763 189.773 142.679 189.917C141.769 190.39 141.037 191.145 140.592 192.069C140.578 192.031 140.547 191.901 140.536 191.875C140.148 191.011 139.51 190.283 138.704 189.784C139.136 189.76 139.696 189.684 140.071 189.684V189.684ZM138.31 190.358C138.347 190.383 138.519 190.485 138.519 190.485C138.519 190.485 138.595 190.586 138.608 190.603C138.475 190.494 138.459 190.48 138.31 190.358H138.31ZM132.274 190.469C132.215 190.525 132.083 190.612 132.036 190.66C131.695 191.005 131.595 191.17 131.508 191.297C131.338 191.541 131.303 191.616 131.266 191.684C131.23 191.742 131.182 191.839 131.137 191.912C130.887 191.424 130.554 190.983 130.153 190.608C130.451 190.594 130.715 190.587 131.228 190.553C131.493 190.535 131.95 190.494 132.274 190.469ZM140.086 193.479C140.087 193.491 140.094 193.502 140.095 193.511C140.098 193.536 140.092 193.549 140.094 193.574C140.093 193.546 140.087 193.511 140.085 193.479H140.086ZM131.62 196.771C131.685 196.858 131.687 196.86 131.753 196.946C131.752 196.958 131.752 196.972 131.752 196.984C131.751 196.984 131.723 196.961 131.723 196.961C131.723 196.961 131.643 196.824 131.622 196.792C131.622 196.781 131.621 196.777 131.621 196.771L131.62 196.771ZM139.149 206.542C138.883 207.934 138.577 209.347 138.211 210.794C138.21 210.797 138.21 210.801 138.209 210.805C137.838 212.248 137.54 213.014 137.025 213.747C136.869 213.968 135.899 214.564 135.797 214.564C136.096 214.564 134.515 213.593 134.633 213.824C134.15 212.796 133.938 211.796 133.389 209.249C133.389 209.245 133.388 209.242 133.388 209.238C133.173 208.247 133.083 207.501 132.906 206.584C133.775 207.335 134.887 207.744 136.036 207.737C137.184 207.73 138.291 207.306 139.15 206.544L139.149 206.542Z" fill="#3F1F10"/>
<path d="M150.459 154.534C138.465 163.362 146.359 169.495 143.722 173.304C141.345 176.738 140.61 180.699 140.61 184.421C140.61 188.018 141 193.061 141.724 200.226C141.725 200.237 141.725 200.242 141.726 200.25C141.727 200.261 141.729 200.268 141.73 200.277C142.489 207.373 142.93 211.528 143.873 214.865C143.876 214.876 143.878 214.886 143.882 214.897C143.884 214.908 143.886 214.91 143.888 214.916C144.349 216.51 145.196 218.612 146.901 220.439C148.989 222.676 151.591 223.917 154.855 223.917C158.409 223.917 161.09 222.419 163.104 220.091C163.214 219.964 163.292 219.831 163.395 219.702C163.504 219.838 163.586 219.98 163.704 220.114C165.824 222.516 168.539 223.861 171.953 223.861C176.469 223.861 179.462 221.352 181.234 218.538C182.605 216.36 183.206 214.115 183.606 212.096C184.427 207.987 185.112 203.249 185.694 197.814C186.31 192.414 186.646 188.129 186.646 184.647C186.646 180.972 186.14 177.021 183.832 173.475C181.186 169.41 176.809 167.31 172.234 167.31C169.114 167.31 166.181 168.322 163.755 170.115C161.607 168.464 159.025 167.576 156.321 167.376C153.317 161.38 148.259 147.2 150.459 154.534ZM166.611 173.07L166.63 173.097C166.626 173.086 166.62 173.086 166.616 173.08C166.613 173.08 166.613 173.069 166.611 173.069L166.611 173.07ZM170.999 177.869C171.155 179.261 171.34 180.905 171.34 180.905C171.032 180.052 170.485 179.305 169.765 178.753L170.999 177.869ZM167.985 180.751C167.96 180.334 167.972 180.786 168.027 181.168C168.058 181.39 168.142 181.607 168.209 181.827C168.042 181.287 167.994 180.894 167.985 180.751ZM160.929 181.297C162.539 182.414 164.67 182.427 166.293 181.329C166.141 182.132 166.025 183.033 166.025 184.139C166.025 187.731 166.438 192.86 167.179 199.276C166.881 198.996 166.548 198.756 166.188 198.562C165.435 198.156 164.669 198.029 164.096 197.967C164.64 197.926 164.475 197.93 163.902 197.948C163.815 197.937 163.706 197.926 163.651 197.924C163.621 197.924 163.591 197.913 163.562 197.913H163.534C163.518 197.913 163.442 197.902 163.433 197.902C163.33 197.891 163.226 197.889 163.122 197.888C163.028 197.888 163.065 197.874 162.942 197.877C162.921 197.877 162.885 197.891 162.862 197.892C162.027 197.929 161.216 198.188 160.512 198.64H160.511C160.511 198.64 160.511 198.64 160.511 198.64C160.508 198.64 160.233 198.867 160.001 199.054C160.787 192.326 161.23 187.401 161.23 184.586C161.23 183.269 161.097 182.203 160.93 181.294L160.929 181.297ZM168.501 182.621C168.503 182.632 168.507 182.632 168.51 182.638C168.509 182.638 168.507 182.638 168.506 182.627C168.503 182.627 168.504 182.616 168.501 182.616V182.621ZM158.804 182.946C158.807 182.946 158.704 183.112 158.659 183.208C158.695 183.078 158.68 183.168 158.45 183.5C158.634 183.234 158.797 182.958 158.804 182.946ZM155.029 185.156C155.127 185.156 155.141 185.168 155.247 185.168H155.316C155.195 185.18 155.174 185.179 155.081 185.179C155.067 185.179 155.044 185.167 155.029 185.162L155.029 185.156ZM163.074 200.389L166.441 202.683L166.226 206.143C166.11 206.239 166.066 206.276 165.953 206.366C165.68 206.307 165.403 206.273 165.124 206.263L162.243 204.3L163.074 200.389ZM175.349 204.114C175.335 204.206 175.32 204.274 175.307 204.364L175.156 204.291C175.222 204.234 175.286 204.175 175.349 204.114L175.349 204.114ZM168.232 204.746C169.958 206.89 173.141 207.119 175.156 205.244C174.884 207.006 174.606 208.73 174.303 210.245C174.303 210.245 174.302 210.256 174.302 210.256C173.989 211.838 173.715 212.679 173.208 213.485C173.097 213.661 171.999 214.378 171.952 214.378C171.927 214.378 170.85 213.88 170.815 213.839C170.379 213.346 170.191 212.921 169.932 211.906H169.931C169.902 211.788 169.768 211.013 169.638 210.231C169.365 208.587 168.25 207.207 166.7 206.596C167.36 206.123 167.888 205.487 168.233 204.751L168.232 204.746ZM158.821 204.825C158.994 205.165 159.208 205.484 159.457 205.773C159.542 205.871 159.706 205.969 159.818 206.07C159.974 206.218 160.139 206.355 160.313 206.48H160.316H160.319C158.763 207.045 157.614 208.381 157.288 210.004C157.115 210.864 156.944 211.66 156.885 211.855C156.88 211.872 156.875 211.889 156.87 211.907C156.571 212.937 156.37 213.375 155.933 213.88H155.932C155.89 213.929 154.86 214.429 154.854 214.429C154.85 214.429 153.853 213.984 153.833 213.963C153.43 213.531 153.257 213.175 152.998 212.279H152.998C152.648 211.04 152.27 208.453 151.857 205.157C153.83 207.102 157.043 206.948 158.821 204.824L158.821 204.825ZM165.978 214.553L165.963 214.605C165.966 214.594 165.966 214.589 165.97 214.579C165.972 214.567 165.976 214.561 165.978 214.554V214.553Z" fill="#3F1F10"/>
<path d="M201.405 166.524C199.497 166.524 197.772 167.007 196.232 167.725C195.734 167.644 195.263 167.537 194.712 167.537C190.216 167.537 187.124 169.967 185.244 172.922C183.593 175.516 183.056 178.357 183.056 180.881C183.056 185.251 180.823 189.081 183.709 191.952C183.86 194.651 183.736 197.079 183.936 199.276C180.092 200.95 180.46 200.038 182.461 201.639L183.965 202.844C186.305 204.716 182.888 205.689 182.888 208.72C182.888 214.967 187.417 219.21 191.61 221.455H191.611C195.665 223.624 200.205 224.651 204.836 224.651C212.072 224.651 219.01 222.23 224.049 217.191C224.061 217.179 224.074 217.166 224.086 217.154C229.082 212.1 231.51 205.189 231.51 197.978C231.51 190.57 228.985 183.457 223.617 178.511C223.615 178.511 223.611 178.511 223.609 178.5C223.583 178.475 223.556 178.452 223.529 178.428C221.465 176.576 219.162 175.034 216.657 173.886C215.211 173.202 213.665 172.684 212.073 172.206C211.608 171.506 211.06 170.81 210.396 170.155C207.88 167.672 204.688 166.519 201.405 166.519L201.405 166.524ZM217.55 188.988L217.603 189.059C217.593 189.045 217.581 189.036 217.571 189.023C217.562 189.012 217.558 188.999 217.549 188.988H217.55ZM205.291 191.459C207.572 192.458 209.036 193.412 209.949 194.66C209.967 194.683 209.985 194.707 210.003 194.731C210.919 195.935 211.396 197.619 211.396 199.834C211.396 202.402 210.686 204.613 209.425 206.259C207.294 209.043 208.817 213.097 212.254 213.79C210.061 214.679 207.588 215.167 204.836 215.167C201.594 215.167 198.649 214.464 196.086 213.093H196.085C193.653 211.791 192.371 210.23 192.371 208.721C192.371 208.695 192.758 207.764 192.779 207.743C192.822 207.701 193.582 207.329 193.875 207.309C196.595 207.118 198.593 204.678 198.246 201.974C197.943 199.614 197.694 196.359 197.472 192.712C199.773 195.223 203.891 194.562 205.291 191.459V191.459Z" fill="#3F1F10"/>
<path d="M234.017 167.14C228.722 167.14 223.531 168.936 219.524 172.49C219.517 172.502 219.509 172.503 219.502 172.511C219.491 172.52 219.48 172.53 219.47 172.539C215.427 176.185 213.08 181.378 213.08 186.84C213.08 191.322 214.61 195.579 217.229 199.094C216.335 199.67 215.492 200.338 214.754 201.182C212.831 203.357 211.899 205.903 211.899 208.719C211.899 214.146 215.154 218.418 219.1 220.875C219.101 220.875 219.102 220.875 219.103 220.875C219.132 220.893 219.162 220.911 219.192 220.93C219.197 220.934 219.202 220.937 219.207 220.941C222.85 223.14 227.004 224.031 231.149 224.031C237.098 224.031 242.881 222.158 247.448 218.362C247.452 218.359 247.456 218.355 247.46 218.351C247.473 218.34 247.487 218.328 247.5 218.317C252.127 214.411 255.01 208.72 255.01 202.586C255.01 198.651 253.835 194.807 251.645 191.542C251.102 190.722 250.437 189.963 249.786 189.195C249.83 189.131 249.873 189.066 249.914 189.001C251.55 186.938 252.366 184.582 252.366 182.002C252.366 176.637 249.073 172.57 245.345 170.248C241.906 168.084 237.949 167.139 234.017 167.139L234.017 167.14ZM236.302 176.831C237.795 177.08 239.152 177.555 240.302 178.279C240.31 178.284 240.318 178.29 240.327 178.295C241.816 179.221 242.883 180.892 242.883 182.003C242.883 182.232 242.54 183.128 242.402 183.278C242.402 183.278 242.401 183.278 242.401 183.278C242.376 183.304 241.812 183.672 241.469 183.749C240.314 184.009 239.298 184.692 238.62 185.664C237.943 186.635 237.654 187.825 237.809 188.999C237.507 188.725 237.339 188.538 237.015 188.249C237.014 188.249 237.012 188.249 237.011 188.249C235.382 186.801 235.163 186.84 235.163 185.549C235.163 185.438 235.55 184.535 235.594 184.447C235.656 184.406 235.647 184.41 235.749 184.344C236.358 183.945 236.867 183.411 237.237 182.784C237.606 182.156 237.826 181.452 237.88 180.726C237.933 180 237.819 179.271 237.545 178.596C237.272 177.921 236.846 177.318 236.302 176.834L236.302 176.831ZM237.785 194.54L237.822 194.586C237.811 194.573 237.813 194.575 237.802 194.565C237.796 194.554 237.791 194.548 237.784 194.54H237.785ZM224.114 206.13C224.128 206.143 224.164 206.179 224.177 206.191C224.021 206.036 224.024 206.027 224.125 206.143L224.114 206.13ZM222.994 206.883C223.388 206.883 223.586 206.927 224.166 207.134C224.986 207.434 225.683 207.625 226.205 207.746C226.467 207.806 226.687 207.85 226.845 207.878C226.897 207.889 226.925 207.893 226.958 207.898C226.97 207.898 226.991 207.898 226.999 207.909C227.002 207.909 227.013 207.909 227.016 207.909C227.358 207.97 227.706 207.994 228.053 207.978C227.342 208.933 227.016 210.119 227.14 211.302C227.263 212.485 227.827 213.579 228.719 214.366C226.966 214.119 225.416 213.612 224.113 212.826C222.53 211.839 221.383 209.993 221.383 208.72C221.383 208.508 221.701 207.641 221.861 207.46C221.869 207.451 221.878 207.441 221.886 207.431C221.932 207.379 223.014 206.885 222.994 206.885L222.994 206.883Z" fill="#3F1F10"/>
<path d="M253.725 167.224C253.376 167.224 253.029 167.262 252.689 167.338C248.582 167.619 244.617 169.486 242.082 173.175C239.644 176.724 239.088 180.749 239.088 184.448C239.088 188.39 239.724 194.583 240.745 203.092C239.997 204.585 239.425 206.389 239.425 208.408C239.425 214.128 243.009 218.591 247.328 221.006C247.334 221.006 247.34 221.017 247.346 221.017C247.374 221.033 247.402 221.048 247.43 221.063C247.43 221.063 247.431 221.063 247.431 221.063C251.37 223.199 255.779 223.946 260.305 223.946C265.069 223.946 269.833 222.877 273.831 220.071C273.839 220.06 273.847 220.059 273.856 220.053H273.858C278.136 217.027 280.904 212.135 280.904 206.723C280.904 204.378 280.448 201.146 278.267 198.348C275.274 194.699 268.42 188.627 268.138 184.788C268.138 181.065 267.646 177.111 265.381 173.539C262.77 169.421 258.382 167.226 253.725 167.226V167.224ZM248.99 178.022C248.872 178.197 248.851 178.295 248.763 178.444C248.751 178.475 248.658 178.623 248.652 178.637C248.597 178.769 248.805 178.324 248.99 178.022H248.99ZM249.435 180.254C249.435 180.243 249.441 180.363 249.441 180.372L249.429 180.357C249.429 180.478 249.433 180.6 249.443 180.721C249.419 180.435 249.434 180.28 249.434 180.254L249.435 180.254ZM257.671 202.679C258.193 203.974 259.259 204.974 260.585 205.411C260.383 205.43 260.194 205.463 259.968 205.463C259.173 205.463 258.859 205.386 258.493 205.079C258.545 205.123 258.439 205.04 258.296 204.734C258.038 204.181 257.675 203.683 257.228 203.267C257.391 203.083 257.539 202.886 257.671 202.679V202.679ZM250.332 203.498C250.368 203.533 250.405 203.569 250.442 203.605C250.412 203.639 250.382 203.674 250.353 203.708C250.348 203.647 250.342 203.586 250.335 203.525C250.333 203.514 250.332 203.509 250.331 203.499L250.332 203.498ZM270.703 204.128C270.717 204.14 270.778 204.165 270.787 204.176C270.798 204.19 270.799 204.208 270.809 204.223C270.774 204.19 270.739 204.159 270.703 204.128Z" fill="#3F1F10"/>
<g opacity="0.999">
<path d="M63.5666 3.29536C48.7906 3.29536 35.2921 8.09517 24.7413 17.455L24.7135 17.4794L24.6856 17.5078C14.2622 26.9059 8.49836 39.7151 8.49836 53.6529C8.49836 68.8358 14.9365 82.811 26.504 93.5548C26.5054 93.5548 26.5083 93.5548 26.5097 93.5548C32.373 99.1358 36.8686 103.436 39.9247 106.387C41.4623 107.872 42.6461 109.025 43.4444 109.815C44.2426 110.604 45.2419 111.831 44.1974 110.526L44.2559 110.601L44.3173 110.674C46.9291 113.808 47.4828 115.838 47.4828 117.265C47.4828 119.452 47.2039 119.976 45.868 121.192C44.7522 122.198 43.5225 122.815 40.4351 122.815C39.2041 122.815 35.2904 122.123 29.9709 120.176L29.9375 120.162L29.904 120.148C27.234 119.194 24.5867 118.527 21.5845 118.527C16.8245 118.527 11.8165 121.001 8.76915 124.485C5.75126 127.831 4 132.546 4 136.968C4 147.299 10.4925 156.538 19.8051 162.337L19.861 162.369L19.9168 162.402C29.2178 168.018 40.3414 170.616 52.6454 170.616C70.3115 170.616 86.2394 165.292 98.9508 154.727L98.9787 154.701L99.0065 154.679C111.699 143.964 118.853 129.504 118.853 113.617C118.853 103.446 115.873 93.6925 110.196 85.2471C104.475 76.5914 94.5905 66.5184 79.9187 53.4445H79.9159H79.9102C78.5409 52.2274 78.1085 51.4997 77.4391 50.636C78.5269 50.8075 80.2109 51.0141 83.8705 52.1643L83.8957 52.1786L83.9235 52.1929C86.3004 52.9242 88.4834 53.4674 91.1999 53.4673C95.846 53.4674 100.833 51.2316 103.946 47.8365C107.018 44.4851 108.784 39.7063 108.784 35.2415C108.784 25.456 102.426 16.8518 93.6459 11.393C84.987 5.92434 74.6989 3.30495 63.5668 3.30495L63.5666 3.29536ZM63.5666 22.1851C71.8416 22.1851 78.2514 23.9928 83.5803 27.3642L83.6165 27.3871L83.6528 27.4099C88.3456 30.3194 89.5203 32.1782 89.7774 34.2066C89.5808 34.1566 89.7106 34.2065 89.479 34.1308L89.532 34.1481C84.1412 32.4539 80.226 31.3561 75.7767 31.3561C71.2261 31.3561 66.5062 32.1743 62.4677 35.4226C58.4292 38.6709 56.4798 44.1272 56.4798 48.726C56.4798 56.9383 61.379 62.2522 67.3596 67.5683C81.5093 80.1779 90.7481 90.0822 94.4545 95.698L94.4797 95.7365L94.5048 95.772C98.236 101.312 99.96 106.963 99.96 113.627C99.96 124.292 96.123 132.39 86.8407 140.234C77.5684 147.928 66.663 151.736 52.6451 151.736C42.9839 151.736 35.5595 149.772 29.7308 146.266C24.4697 142.978 23.1726 140.72 22.9787 137.796C23.2625 137.871 23.1628 137.811 23.5477 137.947L23.4807 137.921C29.8707 140.259 35.0972 141.709 40.4349 141.709C47.0495 141.709 53.6728 139.611 58.5521 135.196H58.5606L58.5692 135.182C63.5081 130.692 66.3727 123.93 66.3727 117.269C66.3727 110.446 63.3794 104.083 58.8871 98.6659C57.6638 97.1473 57.604 97.2538 56.7313 96.3903C55.8338 95.5023 54.6153 94.3177 53.047 92.8035C49.9105 89.7753 45.3855 85.4446 39.4508 79.7959L39.4089 79.7574L39.3644 79.7187C30.9436 71.8995 27.3885 63.8858 27.3885 53.6529C27.3885 44.4709 30.3306 37.8655 37.3061 31.5642C44.4559 25.2324 52.6533 22.1851 63.5671 22.1851H63.5666Z" fill="#46280B" stroke="#3F1F10" stroke-width="6.14514" stroke-linecap="round" stroke-linejoin="round"/>
<path d="M126.659 3.08065C117.964 3.08065 109.451 7.21362 104.311 14.1696C99.1108 21.0694 97.0791 29.8794 97.0791 39.7306C97.0791 53.3596 98.9852 75.3949 102.716 106.817V106.831L107.217 143.905C108.107 151.171 108.501 155.353 110.48 159.972L110.592 160.229L110.714 160.477C113.001 165.051 119.05 168.696 124.09 168.696C127.801 168.696 131.759 167.016 134.345 164.596C136.932 162.176 138.439 159.346 139.561 156.388L139.508 156.528C144.143 144.869 148.26 135.472 151.782 128.421C152.661 126.724 153.16 126.246 153.916 125.046C155.908 131.827 157.755 140.491 159.29 151.36L159.293 151.387L159.298 151.416C160.11 156.933 160.865 161.33 164.475 165.757C168.046 170.299 173.905 172.124 178.925 172.124C188.517 172.124 197.605 166.722 202.773 158.492L202.801 158.45L202.826 158.409C207.966 150.032 210.005 139.651 210.005 127.551C210.005 108.704 206.982 91.5887 200.731 76.4213C197.871 69.4289 194.633 63.7109 190.284 59.2606C185.935 54.8102 179.91 51.7024 173.57 51.7024C165.268 51.7024 158.819 56.2888 152.761 62.9169C154.18 53.4598 155.168 44.9811 155.168 38.4438C155.168 28.6465 153.525 20.148 148.566 13.4072C143.608 6.66637 135.154 3.07961 126.659 3.07961L126.659 3.08065ZM126.659 21.9732C130.873 21.9732 131.953 22.7047 133.35 24.6032C134.746 26.5018 136.278 30.9634 136.278 38.4449C136.278 45.9109 134.884 57.8537 131.941 73.5469L131.936 73.5725L131.933 73.5983C129.626 86.2854 127.676 98.4129 126.084 109.986L138.573 113.472C137.352 115.378 136.176 117.466 134.975 119.789L134.948 119.845L134.92 119.901C132.195 125.351 128.993 133.14 125.85 140.637L121.474 104.592L121.471 104.578V104.563C117.779 73.4547 115.971 51.5138 115.971 39.7281C115.971 32.472 117.501 28.0258 119.407 25.5098L119.449 25.4569L119.488 25.4012C121.492 22.6765 122.808 21.9707 126.659 21.9707L126.659 21.9732ZM173.57 70.5962C174.369 70.5962 174.983 70.6319 176.774 72.4648C178.565 74.2976 180.967 78.002 183.247 83.5761L183.253 83.5904L183.259 83.6045C188.426 96.1341 191.112 110.713 191.112 127.556C191.112 137.412 189.307 144.285 186.75 148.479C184.277 152.407 182.752 153.17 179.109 153.201C178.793 152.287 178.29 150.728 177.988 148.671C176.231 136.242 174.106 125.917 171.453 117.48C170.302 113.762 168.917 110.473 166.422 107.478C163.926 104.483 159.51 101.831 154.934 101.831C153.073 101.831 151.478 102.246 149.992 102.807C154.832 92.9351 159.464 84.539 163.44 79.4072C169.245 72.1051 173.502 70.5997 173.57 70.5997L173.57 70.5962Z" fill="#46280B" stroke="#3F1F10" stroke-width="6.14514" stroke-linecap="round" stroke-linejoin="round"/>
<path d="M272.899 52.9892C266.973 52.9892 261.618 55.7139 257.197 59.7274C250.419 55.5975 243.049 53.204 235.415 53.204C222.069 53.204 209.938 60.1684 201.641 71.667C193.335 83.0374 189.342 97.1751 189.342 112.986C189.342 128.361 192.77 141.916 200.196 152.796L200.224 152.837L200.255 152.878C207.846 163.747 219.36 170.41 231.988 170.41C241.819 170.41 250.75 166.126 258.6 159.232C258.909 159.95 259.201 160.9 259.526 161.549L259.574 161.647L259.627 161.744C261.792 165.833 266.711 170.409 272.684 170.409C279.889 170.409 284.583 165.179 287.371 160.288C290.159 155.396 292.159 149.436 294.059 141.836L294.062 141.822L294.065 141.807C297.864 126.46 299.696 109.151 299.696 89.8431C299.696 79.7078 298.308 71.203 293.895 64.2292C289.482 57.2552 281.17 52.9812 272.899 52.9812L272.899 52.9892ZM272.899 71.879C276.195 71.879 276.56 72.1736 277.931 74.3389C279.301 76.5041 280.803 81.7081 280.803 89.8511C280.803 107.957 279.068 123.779 275.727 137.278C275.016 140.119 274.284 142.418 273.571 144.515C272.773 142.114 272.485 141.706 271.48 138.218L265.804 118.519L254.52 135.632C246.694 147.497 239.712 151.521 231.988 151.521C225.207 151.521 220.734 149.189 215.77 142.097C210.935 134.99 208.231 125.571 208.231 112.986C208.231 100.248 211.232 90.5497 216.908 82.7895L216.927 82.7638L216.947 82.7366C222.643 74.8312 227.924 72.0939 235.416 72.0939C240.295 72.0939 245.015 73.8002 250.205 77.7974C247.804 76.9477 245.33 76.3359 242.698 76.3359C235.734 76.3359 228.853 80.2184 224.79 85.7794L224.77 85.805L224.75 85.8322C220.784 91.3407 219.114 98.1452 219.114 105.274C219.114 112.089 220.891 118.717 224.859 124.008L224.993 124.186L225.135 124.356C229.351 129.46 236.059 132.712 242.697 132.712C247.878 132.712 253.154 130.778 257.119 127.455C261.084 124.131 263.854 119.744 265.969 114.723L266.789 112.777L266.699 110.665C266.554 107.173 266.269 101.171 265.84 92.5927L265.662 89.0395L263.185 86.4876C262.896 86.1898 262.571 85.954 262.276 85.6649L267.028 77.0748C269.748 72.1585 270.887 71.879 272.899 71.879H272.899ZM242.697 95.2283C242.394 94.5904 245.051 96.0223 247.168 97.6519C247.398 102.325 247.595 106.415 247.709 109C246.683 110.977 245.681 112.394 244.984 112.977C244.094 113.724 243.8 113.822 242.697 113.822C241.173 113.822 240.885 113.685 239.895 112.514C238.775 110.965 238.006 108.922 238.006 105.274C238.006 100.99 238.903 98.5193 240.073 96.8877C271.534 141.102 246.165 102.511 242.697 95.2283Z" fill="#46280B" stroke="#3F1F10" stroke-width="6.14514" stroke-linecap="round" stroke-linejoin="round"/>
<path d="M308.974 51.2768C301.181 51.2768 294.056 55.7304 289.178 61.8945C284.28 67.949 281.536 75.4797 281.536 83.2134C281.536 97.7199 286.94 114.507 296.837 134.89C300.701 142.852 305.565 150.282 310.935 157.422C310.268 157.681 309.639 157.947 308.76 157.947C306.827 157.947 305.969 157.592 305.081 156.951L305.059 156.937L305.039 156.92C302.402 155.036 300.22 153.572 298.245 152.424C296.27 151.276 295.829 149.808 290.338 149.808C284.066 149.808 278.972 154.854 276.876 159.279C274.795 163.672 274.04 168.485 274.04 173.603C274.04 183.232 277.01 192.302 283.146 199.03L283.196 199.086L283.246 199.142C289.498 205.785 298.408 209.394 307.689 209.394C320.047 209.394 331.589 203.311 340.964 193.196C350.339 183.081 358.203 168.94 365.323 150.695C376.616 121.802 382.461 95.8851 382.461 72.7178C382.461 67.9151 381.818 63.2669 378.855 58.9875C375.892 54.7082 370.15 52.135 365.306 52.135C359.646 52.135 353.691 55.3114 350.402 59.802C347.113 64.2927 345.657 69.4968 344.816 75.4703C343.245 85.9778 342.355 91.2523 341.801 94.3182C339.324 89.6925 336.381 83.1132 333.057 73.9894C330.793 67.7646 328.147 62.594 324.325 58.4494C320.502 54.3033 314.864 51.2843 308.974 51.2843L308.974 51.2768ZM308.974 70.1666C309.226 70.1666 309.192 69.8971 310.439 71.2487C311.685 72.6004 313.571 75.6731 315.305 80.4412H315.308C319.342 91.5167 322.99 99.9671 326.701 106.264C328.557 109.413 330.392 112.046 332.776 114.338C335.159 116.631 338.536 118.999 343.245 118.999C348.227 118.999 352.872 115.629 355.135 112.269C357.369 109.001 358.957 105.305 359.773 101.431C360.428 98.318 361.576 90.8554 363.064 80.9766C361.88 99.1744 357.018 120.05 347.73 143.812C341.142 160.694 334.015 172.896 327.111 180.345C320.207 187.794 314.182 190.494 307.691 190.494C302.725 190.494 299.932 189.25 297.065 186.227C294.381 183.256 292.932 179.633 292.932 173.593C292.932 172.804 293.037 172.289 293.094 171.638C293.473 171.902 293.611 171.961 294.023 172.254C298.276 175.326 303.555 176.825 308.762 176.825C317.996 176.825 326.428 170.916 331.247 162.76L334.664 156.976L330.321 151.85C323.676 144.008 318.196 135.619 313.833 126.629C304.594 107.6 300.429 92.6888 300.429 83.2049C300.429 79.5394 301.386 76.811 303.884 73.7363L303.929 73.6835L303.974 73.6277C306.521 70.3949 307.654 70.1582 308.977 70.1582L308.974 70.1666Z" fill="#46280B" stroke="#3F1F10" stroke-width="6.14514" stroke-linecap="round" stroke-linejoin="round"/>
<path d="M467.452 31.001C466.9 31.0012 466.35 31.0498 465.806 31.1461L461.207 31.966C449.032 34.1347 438.276 39.8598 431.759 49.1768C428.581 53.7184 426.697 58.4388 423.958 68.1614C423.711 69.0388 423.535 69.4963 423.311 70.2112C422.539 70.2384 422.488 70.2726 421.386 70.2869C410.309 70.4211 400.76 71.6794 392.052 74.3504C373.187 80.1365 360.436 93.9764 359.231 111.865C358.287 125.891 362.969 141.351 371.564 152.434C374.012 155.589 377.101 158.199 381.736 161.13C383.172 162.037 384.554 162.921 385.598 163.598C386.643 164.274 388.244 165.455 387.004 164.504C388.625 165.755 389.424 166.088 390.705 166.766C391.999 167.451 393.484 168.187 395.061 168.936C398.216 170.434 401.632 171.946 404.471 172.997C427.409 181.485 450.226 179.493 465.508 165.324C468.349 162.69 470.629 159.454 473.086 154.595C476.566 147.712 478.195 140.879 478.148 133.229C478.099 124.914 475.81 115.983 472.096 107.517C476.276 106.215 480.365 104.581 483.985 102.452C492.084 97.6882 497.619 89.9145 501.224 79.4068C501.887 77.4757 502.555 75.8985 502.718 73.1707C502.882 70.4417 502.016 67.8347 501.463 66.4327C496.631 54.176 486.444 41.1124 475.367 34.2478L472.436 32.4295C470.938 31.5014 469.211 31.0105 467.449 31.0125L467.452 31.001ZM463.558 53.9292C463.29 53.9035 463.717 53.9548 464.239 54.1105C464.239 54.1105 464.253 54.1105 464.256 54.1248C464.038 54.0234 463.625 53.9417 463.559 53.9351L463.558 53.9292ZM453.99 54.2555C454.088 54.5919 454.077 54.9634 454.185 55.3014C455.722 60.1075 458.253 65.0685 461.676 69.7148C465.142 74.4182 469.518 78.2516 474.589 80.8205C475.938 81.5034 477.466 82.0045 478.982 82.466C477.805 83.8962 476.448 84.9612 474.408 86.1614C473.683 86.5866 461.229 90.8979 459.866 91.0812C458.905 91.2097 458.043 91.3622 457.111 91.5971C456.643 91.7142 456.184 91.8338 455.437 92.1242C455.064 92.2695 454.626 92.4349 453.884 92.8745C453.141 93.314 451.811 93.6183 450.197 96.7902C450.182 96.8196 450.167 96.8491 450.152 96.8787C448.471 100.27 449.134 101.409 449.226 102.208C449.319 103.008 449.431 103.394 449.519 103.717C449.696 104.364 449.823 104.673 449.943 104.981C450.183 105.595 450.401 106.073 450.657 106.618C451.17 107.708 451.81 108.962 452.543 110.316C456.64 117.893 459.225 127.575 459.258 133.331C459.293 138.93 458.819 140.942 456.23 146.062C453.992 150.488 454.604 149.665 452.665 151.462C443.459 159.998 429.527 162.117 411.029 155.272C409.204 154.596 405.936 153.177 403.164 151.86C401.777 151.202 400.486 150.561 399.544 150.062C398.601 149.563 397.695 148.887 398.537 149.54C398.525 149.53 398.513 149.521 398.501 149.512C396.908 148.289 396.988 148.463 395.868 147.738C394.748 147.012 393.323 146.102 391.83 145.158C387.683 142.536 388.046 142.859 386.489 140.852C381.783 134.782 377.551 120.914 378.075 113.132C378.812 102.184 383.358 96.774 397.586 92.4099C404.198 90.3821 411.827 89.2929 421.611 89.1747C424.8 89.1362 426.913 89.0975 429.099 88.8038C431.285 88.51 434.702 87.5733 437.103 84.9661C440.203 81.5946 439.616 80.9601 440.244 79.2571C440.872 77.5541 441.49 75.5794 442.135 73.2915C444.763 63.9642 445.165 62.9653 447.233 60.0104C448.663 57.966 450.981 55.9491 453.985 54.2595L453.99 54.2555Z" fill="#46280B" stroke="#3F1F10" stroke-width="6.14514" stroke-linecap="round" stroke-linejoin="round"/>
</g>
<path d="M63.8277 2.21558C49.0517 2.21558 35.5532 7.01539 25.0024 16.3752L24.9746 16.3996L24.9467 16.428C14.5233 25.8261 8.75946 38.6353 8.75946 52.5731C8.75946 67.756 15.1977 81.7312 26.7651 92.475C26.7665 92.475 26.7694 92.475 26.7708 92.475C32.6341 98.056 37.1297 102.357 40.1858 105.307C41.7234 106.792 42.9072 107.945 43.7055 108.735C44.5038 109.525 45.503 110.752 44.4585 109.446L44.517 109.522L44.5785 109.594C47.1902 112.729 47.7439 114.758 47.7439 116.185C47.7439 118.372 47.465 118.896 46.1291 120.112C45.0133 121.119 43.7836 121.735 40.6962 121.735C39.4652 121.735 35.5515 121.043 30.232 119.096L30.1986 119.082L30.1651 119.068C27.4951 118.114 24.8478 117.448 21.8456 117.448C17.0856 117.448 12.0776 119.921 9.03026 123.405C6.01237 126.751 4.26111 131.466 4.26111 135.888C4.26111 146.219 10.7536 155.458 20.0662 161.257L20.1221 161.29L20.1779 161.323C29.4789 166.938 40.6025 169.536 52.9065 169.536C70.5726 169.536 86.5005 164.213 99.2119 153.647L99.2398 153.622L99.2676 153.599C111.96 142.885 119.114 128.424 119.114 112.537C119.114 102.366 116.134 92.6127 110.457 84.1674C104.736 75.5117 94.8516 65.4386 80.1798 52.3647H80.177H80.1713C78.802 51.1476 78.3696 50.4199 77.7002 49.5562C78.788 49.7277 80.472 49.9343 84.1316 51.0845L84.1568 51.0988L84.1846 51.1131C86.5615 51.8444 88.7445 52.3876 91.461 52.3875C96.1071 52.3876 101.094 50.1518 104.207 46.7567C107.279 43.4053 109.046 38.6265 109.046 34.1617C109.046 24.3762 102.687 15.772 93.907 10.3132C85.2481 4.84455 74.96 2.22516 63.8279 2.22516L63.8277 2.21558ZM63.8277 21.1053C72.1027 21.1053 78.5125 22.913 83.8414 26.2844L83.8776 26.3073L83.9139 26.3301C88.6067 29.2396 89.7814 31.0984 90.0385 33.1268C89.8419 33.0769 89.9717 33.1267 89.7401 33.051L89.7931 33.0683C84.4023 31.3741 80.4871 30.2763 76.0378 30.2763C71.4872 30.2763 66.7673 31.0945 62.7288 34.3428C58.6904 37.5911 56.7409 43.0474 56.7409 47.6462C56.7409 55.8586 61.6401 61.1724 67.6207 66.4886C81.7704 79.0981 91.0092 89.0024 94.7156 94.6182L94.7408 94.6567L94.7659 94.6922C98.4971 100.233 100.221 105.883 100.221 112.547C100.221 123.212 96.3841 131.31 87.1018 139.154C77.8295 146.848 66.9241 150.656 52.9062 150.656C43.245 150.656 35.8206 148.692 29.9919 145.187C24.7308 141.898 23.4337 139.64 23.2398 136.717C23.5236 136.791 23.4239 136.731 23.8088 136.867L23.7418 136.842C30.1318 139.179 35.3583 140.629 40.696 140.629C47.3106 140.629 53.9339 138.531 58.8132 134.117H58.8218L58.8303 134.102C63.7692 129.612 66.6338 122.85 66.6338 116.189C66.6338 109.366 63.6405 103.003 59.1482 97.5862C57.9249 96.0675 57.8651 96.174 56.9924 95.3105C56.0949 94.4225 54.8764 93.2379 53.3081 91.7237C50.1716 88.6955 45.6466 84.3648 39.7119 78.7161L39.67 78.6776L39.6255 78.6389C31.2047 70.8197 27.6496 62.806 27.6496 52.5731C27.6496 43.3911 30.5917 36.7857 37.5672 30.4845C44.717 24.1526 52.9144 21.1053 63.8282 21.1053H63.8277Z" fill="#C97200"/>
<path d="M126.92 2.00105C118.225 2.00105 109.712 6.13401 104.572 13.09C99.3719 19.9897 97.3402 28.7998 97.3402 38.651C97.3402 52.2799 99.2463 74.3153 102.977 105.737V105.751L107.478 142.825C108.368 150.092 108.762 154.274 110.741 158.892L110.853 159.149L110.975 159.397C113.262 163.971 119.312 167.616 124.351 167.616C128.062 167.616 132.02 165.936 134.606 163.517C137.193 161.097 138.7 158.267 139.822 155.309L139.769 155.449C144.404 143.79 148.521 134.392 152.043 127.341C152.922 125.644 153.421 125.166 154.177 123.966C156.169 130.748 158.016 139.411 159.551 150.281L159.554 150.308L159.56 150.336C160.371 155.854 161.126 160.25 164.736 164.677C168.307 169.219 174.166 171.045 179.186 171.045C188.778 171.045 197.866 165.643 203.034 157.412L203.062 157.37L203.087 157.329C208.227 148.952 210.266 138.571 210.266 126.472C210.266 107.624 207.243 90.5091 200.993 75.3417C198.132 68.3493 194.894 62.6313 190.545 58.1809C186.196 53.7306 180.171 50.6228 173.831 50.6228C165.53 50.6228 159.08 55.2092 153.022 61.8373C154.441 52.3802 155.429 43.9015 155.429 37.3642C155.429 27.5669 153.786 19.0684 148.828 12.3276C143.869 5.58677 135.415 2 126.92 2L126.92 2.00105ZM126.92 20.8936C131.134 20.8936 132.214 21.6251 133.611 23.5236C135.007 25.4222 136.539 29.8838 136.539 37.3653C136.539 44.8313 135.145 56.7741 132.202 72.4673L132.197 72.4929L132.194 72.5187C129.887 85.2058 127.937 97.3333 126.345 108.906L138.834 112.393C137.613 114.298 136.437 116.387 135.237 118.71L135.209 118.765L135.181 118.821C132.456 124.271 129.254 132.061 126.111 139.557L121.735 103.512L121.732 103.498V103.484C118.04 72.3751 116.233 50.4342 116.233 38.6485C116.233 31.3924 117.762 26.9462 119.669 24.4302L119.71 24.3773L119.749 24.3216C121.753 21.5969 123.07 20.8911 126.92 20.8911L126.92 20.8936ZM173.831 69.5166C174.63 69.5166 175.244 69.5523 177.035 71.3852C178.826 73.218 181.228 76.9224 183.508 82.4965L183.514 82.5107L183.52 82.5249C188.687 95.0545 191.374 109.634 191.374 126.476C191.374 136.332 189.568 143.205 187.012 147.399C184.538 151.327 183.013 152.09 179.37 152.121C179.054 151.208 178.551 149.649 178.249 147.592C176.492 135.162 174.367 124.838 171.714 116.4C170.563 112.682 169.178 109.393 166.683 106.399C164.187 103.404 159.771 100.751 155.195 100.751C153.334 100.751 151.739 101.166 150.253 101.727C155.093 91.8555 159.725 83.4594 163.701 78.3276C169.506 71.0255 173.763 69.5201 173.831 69.5201L173.831 69.5166Z" fill="#C97200"/>
<path d="M273.16 51.9097C267.234 51.9097 261.879 54.6343 257.458 58.6478C250.68 54.5179 243.31 52.1244 235.677 52.1244C222.33 52.1244 210.199 59.0888 201.902 70.5874C193.596 81.9578 189.603 96.0955 189.603 111.906C189.603 127.282 193.031 140.836 200.457 151.716L200.485 151.757L200.516 151.799C208.107 162.668 219.622 169.33 232.249 169.33C242.08 169.33 251.011 165.047 258.861 158.152C259.17 158.87 259.462 159.82 259.787 160.47L259.835 160.567L259.888 160.664C262.053 164.754 266.972 169.329 272.946 169.329C280.15 169.329 284.844 164.099 287.632 159.208C290.42 154.317 292.42 148.356 294.32 140.756L294.323 140.742L294.326 140.728C298.125 125.38 299.957 108.071 299.957 88.7635C299.957 78.6282 298.569 70.1234 294.156 63.1496C289.743 56.1756 281.432 51.9016 273.16 51.9016L273.16 51.9097ZM273.16 70.7994C276.456 70.7994 276.822 71.0941 278.192 73.2593C279.562 75.4245 281.064 80.6285 281.064 88.7715C281.064 106.877 279.33 122.7 275.988 136.198C275.277 139.039 274.545 141.338 273.833 143.435C273.034 141.035 272.746 140.627 271.741 137.138L266.065 117.439L254.781 134.553C246.956 146.417 239.973 150.441 232.249 150.441C225.468 150.441 220.995 148.11 216.031 141.017C211.196 133.91 208.492 124.492 208.492 111.906C208.492 99.1689 211.494 89.4701 217.169 81.7099L217.188 81.6842L217.208 81.657C222.905 73.7516 228.185 71.0143 235.677 71.0143C240.556 71.0143 245.276 72.7206 250.467 76.7178C248.065 75.8681 245.591 75.2563 242.959 75.2563C235.995 75.2563 229.115 79.1388 225.051 84.6998L225.031 84.7254L225.012 84.7526C221.045 90.2611 219.375 97.0657 219.375 104.195C219.375 111.01 221.152 117.637 225.12 122.928L225.254 123.107L225.396 123.277C229.612 128.38 236.32 131.633 242.959 131.633C248.139 131.633 253.415 129.699 257.38 126.375C261.345 123.052 264.116 118.665 266.23 113.644L267.05 111.697L266.96 109.586C266.815 106.093 266.53 100.092 266.101 91.5131L265.923 87.96L263.446 85.408C263.157 85.1102 262.832 84.8745 262.537 84.5853L267.29 75.9953C270.009 71.0789 271.148 70.7994 273.16 70.7994H273.16ZM242.959 94.1487C243.665 94.1487 245.312 94.9427 247.429 96.5723C247.659 101.246 247.857 105.335 247.97 107.921C246.944 109.897 245.942 111.314 245.246 111.898C244.355 112.644 244.061 112.743 242.959 112.743C241.435 112.743 241.146 112.606 240.156 111.435C239.036 109.886 238.268 107.843 238.268 104.195C238.268 99.9107 239.164 97.4397 240.334 95.8081C241.649 94.0115 241.655 94.1487 242.959 94.1487Z" fill="#C97200"/>
<path d="M309.236 50.1972C301.442 50.1972 294.317 54.6508 289.439 60.8149C284.542 66.8694 281.798 74.4001 281.798 82.1338C281.798 96.6402 287.201 113.427 297.098 133.811C300.962 141.773 305.826 149.202 311.196 156.343C310.529 156.601 309.9 156.867 309.021 156.867C307.088 156.867 306.23 156.513 305.342 155.872L305.32 155.857L305.3 155.84C302.663 153.956 300.482 152.493 298.506 151.344C296.531 150.196 296.09 148.728 290.6 148.728C284.328 148.728 279.234 153.774 277.137 158.2C275.056 162.593 274.301 167.406 274.301 172.524C274.301 182.152 277.272 191.222 283.407 197.951L283.457 198.007L283.507 198.062C289.76 204.705 298.669 208.315 307.95 208.315C320.308 208.315 331.85 202.231 341.225 192.116C350.6 182.002 358.464 167.86 365.584 149.615C376.877 120.723 382.722 94.8055 382.722 71.6382C382.722 66.8355 382.079 62.1873 379.116 57.9079C376.154 53.6286 370.412 51.0554 365.567 51.0554C359.907 51.0554 353.952 54.2318 350.663 58.7224C347.374 63.2131 345.918 68.4172 345.077 74.3907C343.506 84.8982 342.616 90.1726 342.062 93.2386C339.585 88.6129 336.642 82.0336 333.318 72.9098C331.054 66.685 328.408 61.5144 324.586 57.3698C320.763 53.2237 315.125 50.2047 309.236 50.2047L309.236 50.1972ZM309.236 69.087C309.487 69.087 309.453 68.8175 310.7 70.1691C311.946 71.5208 313.833 74.5935 315.566 79.3615H315.569C319.603 90.437 323.251 98.8875 326.962 105.185C328.818 108.333 330.653 110.967 333.037 113.259C335.42 115.551 338.797 117.919 343.507 117.919C348.488 117.919 353.133 114.55 355.396 111.189C357.631 107.922 359.219 104.225 360.034 100.351C360.69 97.2384 361.837 89.7758 363.325 79.897C362.141 98.0947 357.279 118.97 347.991 142.733C341.403 159.614 334.276 171.816 327.372 179.265C320.468 186.714 314.444 189.415 307.953 189.415C302.986 189.415 300.193 188.171 297.327 185.147C294.642 182.177 293.193 178.553 293.193 172.513C293.193 171.724 293.298 171.209 293.355 170.558C293.734 170.822 293.873 170.881 294.284 171.174C298.537 174.246 303.816 175.746 309.024 175.746C318.257 175.746 326.689 169.836 331.508 161.681L334.925 155.896L330.582 150.77C323.937 142.929 318.457 134.54 314.094 125.55C304.855 106.521 300.69 91.6092 300.69 82.1252C300.69 78.4598 301.647 75.7313 304.146 72.6567L304.19 72.6039L304.235 72.5481C306.782 69.3153 307.915 69.0786 309.238 69.0786L309.236 69.087Z" fill="#C97200"/>
<path d="M467.713 29.9212C467.161 29.9214 466.611 29.97 466.068 30.0663L461.468 30.8862C449.293 33.0549 438.538 38.78 432.02 48.097C428.842 52.6386 426.959 57.359 424.219 67.0816C423.972 67.959 423.796 68.4165 423.572 69.1315C422.8 69.1586 422.749 69.1928 421.647 69.2071C410.57 69.3413 401.021 70.5996 392.313 73.2706C373.448 79.0567 360.697 92.8966 359.493 110.785C358.548 124.811 363.23 140.271 371.825 151.354C374.273 154.51 377.362 157.12 381.997 160.05C383.433 160.958 384.815 161.841 385.859 162.518C386.904 163.194 388.505 164.375 387.265 163.424C388.886 164.675 389.685 165.008 390.966 165.686C392.26 166.371 393.745 167.107 395.323 167.856C398.477 169.354 401.893 170.866 404.732 171.917C427.67 180.405 450.487 178.413 465.769 164.244C468.61 161.611 470.89 158.374 473.347 153.515C476.827 146.632 478.456 139.799 478.409 132.149C478.36 123.834 476.071 114.903 472.357 106.437C476.537 105.135 480.626 103.501 484.246 101.372C492.345 96.6084 497.88 88.8347 501.485 78.327C502.148 76.3959 502.816 74.8187 502.98 72.0909C503.143 69.3619 502.277 66.7549 501.725 65.3529C496.893 53.0962 486.705 40.0326 475.628 33.168L472.697 31.3497C471.199 30.4217 469.472 29.9307 467.71 29.9327L467.713 29.9212ZM463.82 52.8494C463.551 52.8237 463.978 52.875 464.5 53.0307C464.5 53.0307 464.514 53.0307 464.517 53.045C464.299 52.9436 463.886 52.8619 463.82 52.8553L463.82 52.8494ZM454.251 53.1757C454.349 53.5121 454.338 53.8836 454.446 54.2216C455.983 59.0277 458.514 63.9887 461.937 68.635C465.403 73.3384 469.779 77.1718 474.85 79.7407C476.199 80.4236 477.727 80.9247 479.243 81.3862C478.066 82.8164 476.709 83.8814 474.669 85.0816C473.944 85.5068 461.49 89.8181 460.127 90.0014C459.167 90.1299 458.304 90.2824 457.372 90.5173C456.904 90.6344 456.445 90.754 455.698 91.0444C455.325 91.1897 454.887 91.3551 454.145 91.7947C453.402 92.2342 452.072 92.5385 450.458 95.7104C450.443 95.7398 450.428 95.7693 450.414 95.7989C448.732 99.1899 449.395 100.329 449.488 101.129C449.58 101.928 449.692 102.314 449.78 102.638C449.957 103.284 450.084 103.593 450.204 103.901C450.444 104.516 450.662 104.993 450.918 105.538C451.431 106.628 452.072 107.882 452.804 109.236C456.901 116.814 459.486 126.495 459.52 132.251C459.554 137.85 459.08 139.862 456.491 144.983C454.253 149.409 454.865 148.585 452.926 150.382C443.72 158.918 429.788 161.037 411.29 154.192C409.465 153.516 406.197 152.097 403.425 150.781C402.039 150.122 400.747 149.481 399.805 148.982C398.862 148.483 397.956 147.808 398.798 148.46C398.786 148.451 398.774 148.441 398.762 148.432C397.169 147.209 397.249 147.384 396.129 146.658C395.009 145.932 393.584 145.022 392.091 144.078C387.944 141.456 388.307 141.779 386.75 139.772C382.044 133.702 377.812 119.834 378.336 112.052C379.073 101.104 383.619 95.6942 397.847 91.3301C404.459 89.3023 412.088 88.2132 421.872 88.0949C425.061 88.0564 427.174 88.0177 429.36 87.724C431.546 87.4303 434.963 86.4935 437.364 83.8864C440.465 80.5148 439.877 79.8803 440.505 78.1773C441.133 76.4743 441.751 74.4996 442.396 72.2117C445.024 62.8844 445.426 61.8855 447.494 58.9306C448.924 56.8862 451.242 54.8693 454.246 53.1797L454.251 53.1757Z" fill="#C97200"/>
<path d="M14.9595 128.797C16.4077 128.797 18.1456 129.175 20.1731 129.93C26.1106 132.197 30.7448 133.331 34.0757 133.331C38.9995 133.331 42.9821 131.895 46.0233 129.024C49.2093 126.001 50.8023 122.147 50.8023 117.463C50.8023 113.08 48.9921 108.622 45.3716 104.088C44.7924 103.332 38.4927 96.9852 26.4727 85.0465C16.3353 75.2235 11.2666 63.587 11.2666 50.1369C11.2666 37.8959 15.6836 27.6194 24.5176 19.3076C33.4964 10.9957 44.5027 6.83968 57.5364 6.83968C67.3842 6.83968 75.8561 9.18224 82.9523 13.8672C90.1933 18.552 93.8137 24.1436 93.8137 30.642C93.8137 33.211 93.0172 35.4023 91.4242 37.2159C89.8312 39.0293 87.8762 39.9359 85.559 39.9359C84.4005 39.9359 82.8799 39.6337 80.9972 39.0292C75.9285 37.3669 72.2356 36.5357 69.9185 36.5357C63.2568 36.5357 59.9259 39.3316 59.9259 44.9231C59.9259 48.399 62.5327 52.5548 67.7462 57.3907C82.373 70.9919 92.0759 81.5706 96.8549 89.1268C101.634 96.5319 104.023 104.693 104.023 113.609C104.023 127.663 98.4479 139.602 87.2968 149.425C76.1457 159.097 62.5327 163.933 46.4577 163.933C35.3066 163.933 25.8934 161.515 18.218 156.679C10.5426 151.692 6.70477 145.572 6.70477 138.318C6.70477 135.749 7.50133 133.557 9.09435 131.744C10.6874 129.779 12.6424 128.797 14.9595 128.797Z" fill="white"/>
<path d="M130.427 111.115C137.813 93.2826 144.764 79.9836 151.281 71.2185C157.943 62.4532 163.88 58.0707 169.094 58.0707C176.335 58.0707 182.562 64.7201 187.776 78.019C193.568 92.6781 196.465 109.453 196.465 128.343C196.465 139.98 194.51 149.123 190.599 155.772C186.689 162.271 181.331 165.52 174.525 165.52C171.194 165.52 168.804 164.538 167.356 162.573C165.908 160.759 164.822 157.284 164.098 152.145C162.36 139.3 160.26 128.797 157.798 120.636C155.915 114.289 153.381 111.115 150.195 111.115C146.864 111.115 142.954 115.649 138.465 124.716C134.699 132.575 130.427 142.776 125.648 155.319C124.055 159.702 121.81 161.893 118.914 161.893C116.597 161.893 114.931 160.835 113.918 158.719C113.049 156.604 112.18 151.843 111.311 144.438L106.749 105.221C102.984 72.1252 101.101 48.8521 101.101 35.402C101.101 26.3346 102.911 19.3073 106.532 14.3203C110.152 9.18199 115.149 6.61301 121.521 6.61301C134.41 6.61301 140.854 15.756 140.854 34.0421C140.854 43.1096 139.333 56.1062 136.292 73.032C133.975 86.331 132.02 99.0254 130.427 111.115Z" fill="white"/>
<path d="M259.185 142.398C250.206 156.604 239.924 163.707 228.339 163.707C218.491 163.707 210.381 158.946 204.009 149.425C197.782 139.904 194.668 127.739 194.668 112.929C194.668 97.8164 198.216 85.1975 205.312 75.0722C212.408 64.7958 221.242 59.6577 231.814 59.6577C240.069 59.6577 247.962 63.1335 255.492 70.0852C259.257 62.9823 264.037 59.431 269.829 59.431C281.56 59.431 287.425 69.103 287.425 88.4468C287.425 108.244 285.615 125.774 281.994 141.038C278.374 156.15 274.246 163.707 269.612 163.707C267.729 163.707 266.136 162.422 264.833 159.853C263.53 157.133 261.647 151.314 259.185 142.398ZM253.103 91.847C248.324 86.7089 243.689 84.1398 239.2 84.1398C235 84.1398 231.525 86.1043 228.773 90.0335C226.166 93.8116 224.863 98.7232 224.863 104.768C224.863 110.36 226.166 114.969 228.773 118.596C231.525 122.072 235 123.81 239.2 123.81C245.572 123.81 250.496 119.503 253.972 110.889C253.827 107.262 253.537 100.915 253.103 91.847Z" fill="white"/>
<path d="M320.751 160.533C313.51 151.617 307.5 142.02 302.721 131.744C293.018 110.889 288.167 94.114 288.167 81.4196C288.167 75.3746 290.049 69.9342 293.815 65.0982C297.58 60.1111 301.78 57.6175 306.414 57.6175C312.641 57.6175 317.782 63.4358 321.837 75.0723C329.802 97.892 336.247 109.302 341.171 109.302C342.764 109.302 344.14 108.395 345.298 106.582C346.891 104.164 347.977 101.519 348.556 98.6477C349.136 95.7763 350.367 87.7667 352.249 74.6189C353.698 63.8891 357.463 58.5242 363.545 58.5242C368.759 58.5242 371.366 62.4535 371.366 70.312C371.366 93.1317 365.79 119.427 354.639 149.199C340.736 186.375 324.227 204.963 305.111 204.963C297.87 204.963 291.932 202.394 287.298 197.256C282.809 192.118 280.564 185.393 280.564 177.081C280.564 172.698 281.215 169.071 282.519 166.2C283.822 163.329 285.488 161.893 287.515 161.893C288.674 161.893 291.787 163.782 296.856 167.56C299.463 169.525 302.576 170.507 306.197 170.507C312.134 170.507 316.986 167.182 320.751 160.533Z" fill="white"/>
<path d="M391.38 159.52C386.54 156.067 380.694 152.857 377.459 148.549C370.713 139.473 366.195 123.952 366.939 112.412C367.924 97.1535 376.694 86.969 393.475 81.5981C401.243 79.1117 409.954 77.8681 420.532 77.7347C426.784 77.6561 428.511 77.4124 429.312 76.505C429.936 75.797 431.034 72.6889 432.245 68.2037C434.967 58.1228 436.125 55.0965 438.786 51.1295C443.518 44.0699 452.116 38.9537 462.481 37.0271C476.233 38.9679 496.453 61.5212 492.328 74.1382C489.028 84.1781 485.541 89.1715 479.049 93.1564C475.426 95.3798 465.106 99.0385 460.721 99.6539C459.41 99.8367 458.264 100.138 458.174 100.323C458.087 100.506 459.105 102.769 460.443 105.35C465.307 114.739 468.36 125.873 468.407 134.402C468.449 141.414 467.382 146.094 464.304 152.447C461.923 157.361 461.078 158.637 458.653 160.983C446.236 172.997 427.602 175.172 406.591 167.058C401.861 165.231 393.029 160.855 391.379 159.52H391.38ZM485.518 71.8898C487.268 71.8886 488.957 71.6374 489.272 71.3395C490.242 70.41 489.518 66.3161 487.693 62.4048C484.085 54.6744 478.301 47.626 472.337 43.6904C469.029 41.5085 463.609 39.8176 462.703 40.6859C460.234 43.0503 463.35 53.2171 468.99 61.2057C471.77 65.1426 474.883 67.9513 478.702 69.9706C481.696 71.5525 482.899 71.8909 485.518 71.8896V71.8898Z" fill="white"/>
<path d="M103.901 168.833C101.968 168.833 99.6655 169.556 98.1901 171.253C96.7146 172.949 96.3115 175.024 96.3115 176.929C96.3115 177.217 96.3534 177.777 96.3644 178.126C96.2042 177.923 96.1084 177.704 95.9179 177.51C94.8033 176.371 92.9907 175.582 91.3589 175.582C89.5787 175.582 87.7017 176.489 86.5681 177.687C86.1734 178.104 85.9088 178.56 85.6253 179.009C85.6241 178.961 85.6193 178.92 85.6183 178.872C85.5733 176.552 85.3104 174.495 84.1754 172.513C83.0404 170.532 80.4236 168.945 78.0856 168.945C74.4477 168.945 71.1779 171.443 69.4093 174.576C69.4057 174.582 69.4021 174.589 69.3985 174.596C67.6611 177.713 66.9529 181.405 66.9529 185.534C66.9529 194.349 68.8707 202.422 72.7612 209.499C72.7619 209.501 72.7627 209.502 72.7635 209.504C74.7293 213.07 77.7994 216.071 81.8544 216.071C84.9931 216.071 87.7434 214.139 89.5256 211.741C89.5979 211.644 89.6572 211.529 89.7278 211.43C89.7924 211.521 89.8479 211.628 89.9137 211.718C91.6371 214.07 94.2239 216.071 97.3773 216.071C99.6859 216.071 101.868 214.978 103.434 213.5C104.999 212.023 106.158 210.181 107.202 207.985C108.829 204.564 110.111 200.658 111.103 196.261C112.133 191.819 112.672 187.69 112.672 183.848C112.672 180.084 112.281 176.881 111.218 174.09H111.218C110.165 171.304 106.983 168.834 103.901 168.834L103.901 168.833ZM77.1008 178.198C77.1327 178.482 77.1824 178.669 77.1895 179.035C77.1897 179.037 77.19 179.039 77.1903 179.041C77.3083 184.749 77.9397 189.576 79.2485 193.633C79.2583 193.664 79.2684 193.694 79.2788 193.724C79.5273 194.438 79.8155 195.163 80.5024 195.994C81.1893 196.825 82.6538 197.848 84.3287 197.848C85.741 197.848 86.8433 197.175 87.4494 196.635C88.0555 196.095 88.3588 195.62 88.6131 195.186C89.1181 194.323 89.3973 193.543 89.6905 192.62L89.6944 192.608L91.2074 187.911L91.3209 188.282L91.3185 188.276C92.0413 190.659 92.6738 192.485 93.3495 193.957C93.6874 194.693 94.0098 195.337 94.5653 196.058C95.1208 196.779 96.0686 198.129 98.502 198.129C99.7978 198.129 101.038 197.51 101.756 196.874C102.026 196.634 102.21 196.4 102.396 196.167C101.595 199.285 100.673 202.085 99.5887 204.364C99.5884 204.364 99.5882 204.364 99.5879 204.364C98.8317 205.956 98.0877 206.953 97.6472 207.368C97.308 207.689 97.3934 207.6 97.4395 207.577C97.3328 207.485 97.1161 207.283 96.7137 206.734C95.8687 205.58 94.7421 203.29 93.6785 200.029C93.3997 199.176 92.8557 198.434 92.1257 197.911C91.3958 197.388 90.518 197.112 89.6202 197.123C88.7225 197.134 87.8517 197.432 87.1347 197.972C86.4177 198.512 85.8919 199.267 85.6339 200.127C84.6662 203.359 83.5835 205.602 82.7598 206.71C81.936 207.819 81.8277 207.639 81.8543 207.639C81.9348 207.639 81.4048 207.713 80.1485 205.436H80.1477C80.1469 205.436 80.1469 205.436 80.1461 205.432C76.9889 199.687 75.3825 193.139 75.3825 185.532C75.3825 182.394 75.9474 180.166 76.757 178.708C76.9323 178.398 76.9822 178.38 77.1008 178.196V178.198ZM104.21 191.647L104.198 191.704C104.199 191.698 104.2 191.69 104.201 191.684C104.204 191.671 104.207 191.66 104.21 191.647L104.21 191.647Z" fill="#C97200"/>
<path d="M116.121 168.833C113.209 168.833 110.163 170.358 108.467 172.744C108.453 172.764 108.439 172.785 108.425 172.805C106.778 175.211 106.226 178.086 106.226 181.203C106.226 186.272 107.005 194.054 108.516 205.008C108.516 205.015 108.517 205.021 108.518 205.028C108.983 208.284 109.221 210.168 110.037 212.127C110.056 212.172 110.076 212.217 110.096 212.262C111.013 214.261 113.667 216.071 115.953 216.071C117.996 216.071 120.261 214.638 121.237 213.042C122.269 211.352 122.534 209.885 122.91 207.84L122.911 207.836C123.646 203.849 124.295 199.313 124.866 194.213C124.866 194.212 124.866 194.211 124.866 194.209C125.438 189.06 125.736 184.981 125.736 181.821C125.736 178.54 125.513 175.895 124.005 173.402C122.413 170.754 119.246 168.831 116.122 168.831L116.121 168.833ZM116.494 177.234C116.537 177.265 116.565 177.386 116.782 177.748C116.785 177.753 116.788 177.758 116.791 177.763C116.778 177.742 117.306 179.258 117.306 181.822C117.306 184.435 117.041 188.305 116.488 193.28C116.344 194.566 116.182 195.699 116.029 196.903C115.202 190.011 114.656 184.313 114.656 181.203C114.656 179.149 115.077 178.015 115.38 177.57C115.609 177.222 115.489 177.263 116.121 177.263C116.395 177.263 116.452 177.204 116.494 177.234V177.234Z" fill="#C97200"/>
<path d="M123.704 168.721C121.458 168.721 119.159 170.149 117.995 171.822C116.839 173.484 116.339 175.499 116.339 177.435C116.339 181 117.712 184.462 120.104 187.153C120.106 187.154 120.107 187.156 120.108 187.158C121.868 189.132 124.301 190.395 126.918 190.901C126.876 191.469 126.801 192.019 126.801 192.62C126.801 196.478 127.48 201.203 128.753 207.069C129.299 209.601 129.586 211.077 130.357 212.704C130.395 212.786 130.437 212.867 130.481 212.947C131.406 214.612 133.754 216.127 135.797 216.127C137.991 216.127 139.935 214.675 140.904 213.295C141.874 211.915 142.375 210.47 142.804 208.798C142.805 208.794 142.806 208.79 142.807 208.786C144.228 203.181 144.961 197.869 144.961 192.846C144.961 192.205 144.926 191.573 144.866 190.95C144.98 190.983 145.081 190.993 145.197 191.028L145.169 191.019C146.056 191.296 146.966 191.492 148.002 191.492C149.907 191.492 152.279 190.363 153.415 188.647C154.55 186.931 154.747 185.192 154.747 183.452C154.747 179.744 153.6 176.181 151.29 173.441C149.013 170.697 145.537 169.001 141.983 169.001C140.952 169.001 139.957 169.124 138.495 169.321C138.493 169.321 138.491 169.321 138.489 169.321C135.27 169.76 132.953 169.957 131.972 169.957C130.67 169.957 128.794 169.707 126.47 169.127C125.544 168.895 124.755 168.72 123.704 168.72L123.704 168.721ZM124.78 177.377C127.406 178.014 129.778 178.388 131.972 178.388C133.841 178.388 136.248 178.135 139.629 177.675H139.623C140.935 177.497 141.889 177.432 141.983 177.432C143.296 177.432 143.862 177.681 144.81 178.827C144.82 178.84 144.83 178.852 144.84 178.864C145.682 179.859 146.146 180.994 146.265 182.64C144.182 182.112 142.11 181.769 140.071 181.769C138.77 181.769 137.344 181.88 135.724 182.083C135.329 182.132 134.943 182.238 134.577 182.395C134.371 182.384 134.164 182.387 133.959 182.405C131.48 182.627 129.76 182.726 129.554 182.726C127.805 182.726 127.137 182.372 126.405 181.552H126.404C125.197 180.194 124.77 179.046 124.77 177.436C124.77 177.392 124.779 177.418 124.78 177.378V177.377ZM135.904 190.549C135.996 190.582 136.161 190.622 136.209 190.644C136.288 190.819 136.531 191.397 136.531 192.846C136.531 195.053 136.35 197.383 136.003 199.823C135.54 196.939 135.231 194.391 135.231 192.62C135.231 191.292 135.507 190.642 135.388 190.854C135.342 190.932 135.628 190.727 135.904 190.549Z" fill="#C97200"/>
<path d="M155.247 168.588C152.319 168.588 149.284 170.194 147.62 172.598C145.955 175.002 145.352 177.907 145.352 181.015C145.352 184.248 145.724 189.237 146.442 196.343C146.443 196.351 146.443 196.359 146.444 196.367C147.2 203.439 147.695 207.551 148.435 210.17C148.438 210.178 148.44 210.186 148.442 210.194C148.802 211.439 149.312 212.668 150.366 213.797C151.42 214.927 153.22 215.769 154.854 215.769C156.634 215.769 158.489 214.77 159.518 213.582C160.539 212.402 161.04 211.15 161.424 209.827C161.613 209.203 161.772 208.359 161.937 207.537C162.477 207.648 163.022 207.727 163.572 207.727C164.037 207.727 164.501 207.678 164.959 207.596C165.079 208.317 165.195 209.107 165.331 209.652C165.333 209.659 165.335 209.665 165.337 209.671C165.683 211.028 166.181 212.349 167.259 213.57C168.337 214.792 170.232 215.713 171.952 215.713C174.234 215.713 176.279 214.1 177.22 212.605C178.16 211.113 178.597 209.57 178.953 207.769C179.737 203.85 180.407 199.24 180.979 193.903C181.587 188.578 181.904 184.415 181.904 181.24C181.904 177.99 181.467 175.129 179.857 172.656C178.247 170.182 175.131 168.645 172.233 168.645C169.498 168.645 166.691 169.962 164.921 172.037C164.918 172.04 164.916 172.043 164.914 172.045C164.393 172.659 163.975 173.312 163.635 173.998C163.379 173.455 163.105 172.918 162.743 172.408C161.097 170.053 158.078 168.589 155.247 168.589L155.247 168.588ZM155.711 177C155.744 177.012 155.719 177.065 155.835 177.232C155.846 177.247 155.856 177.263 155.867 177.278C155.944 177.385 156.488 178.709 156.488 181.183C156.488 183.701 156.042 189.065 155.113 196.763C155.05 197.284 155.085 197.813 155.216 198.321C155.206 198.34 155.196 198.358 155.186 198.376C155.062 197.34 154.955 196.673 154.829 195.495C154.123 188.503 153.782 183.555 153.782 181.015C153.782 179.023 154.191 177.916 154.551 177.396C154.912 176.875 154.651 177.018 155.247 177.018C155.59 177.018 155.679 176.988 155.711 177V177ZM172.712 177.045C172.733 177.049 172.688 177.094 172.792 177.254C173.001 177.574 173.473 178.903 173.473 181.24C173.473 183.835 173.191 187.803 172.601 192.966C172.6 192.976 172.598 192.985 172.597 192.995C172.431 194.548 172.241 195.89 172.059 197.302C172.063 197.104 172.054 196.906 172.031 196.709C171.179 189.635 170.767 184.241 170.767 180.733C170.767 178.536 171.282 177.569 171.34 177.499C171.34 177.499 171.341 177.499 171.341 177.499C171.733 177.039 171.674 177.075 172.233 177.075C172.603 177.075 172.69 177.04 172.711 177.045L172.712 177.045ZM171.952 198.166C171.943 198.231 171.935 198.304 171.926 198.369C171.92 198.357 171.914 198.346 171.908 198.334C171.924 198.278 171.938 198.222 171.952 198.166L171.952 198.166ZM163.078 199.224C163.131 199.189 163.184 199.234 163.403 199.234C163.606 199.234 163.752 199.23 163.938 199.331C163.886 199.335 163.843 199.297 163.572 199.297C163.203 199.297 163.114 199.347 163.046 199.268C163.051 199.263 163.073 199.227 163.078 199.224V199.224Z" fill="#C97200"/>
<path d="M201.405 167.652C199.849 167.652 198.295 168.226 196.95 169.105C196.885 169.083 196.806 169.049 196.741 169.029C196.223 168.865 195.916 168.664 194.712 168.664C192.417 168.664 190.257 170.262 189.244 171.854C188.191 173.508 187.798 175.413 187.798 177.266C187.798 180.776 189.709 184.047 192.541 186.194C192.801 191.373 193.123 195.698 193.543 198.965C192.073 199.068 190.471 199.731 189.426 200.776C188.356 201.846 187.629 203.578 187.629 205.106C187.629 208.984 190.535 211.886 193.848 213.66C197.156 215.43 200.899 216.295 204.836 216.295C211.043 216.295 216.645 214.275 220.696 210.224C220.702 210.218 220.708 210.213 220.714 210.207C224.744 206.129 226.768 200.539 226.768 194.364C226.768 188.002 224.663 182.31 220.403 178.385C220.39 178.372 220.376 178.36 220.362 178.347C218.621 176.785 216.71 175.511 214.659 174.574C213.076 173.822 211.105 173.196 208.892 172.594C208.441 171.629 207.87 170.715 207.065 169.921C205.59 168.465 203.401 167.652 201.405 167.652V167.652ZM201.314 176.367C201.401 176.524 201.448 176.514 201.581 177.069C201.762 177.826 202.15 178.518 202.701 179.068C203.253 179.618 203.945 180.005 204.703 180.186C207.691 180.897 209.885 181.632 211.063 182.195C211.087 182.206 211.111 182.217 211.134 182.228C212.359 182.785 213.541 183.56 214.705 184.601C217.109 186.823 218.337 189.714 218.337 194.364C218.337 198.832 217.138 201.826 214.726 204.271C214.246 204.75 213.722 205.146 213.188 205.53C215.171 202.943 216.137 199.673 216.137 196.22C216.137 193.306 215.493 190.501 213.776 188.245C212.066 185.908 209.618 184.457 206.618 183.214C206.073 182.989 205.488 182.88 204.898 182.895C204.309 182.91 203.73 183.048 203.197 183.301C202.665 183.554 202.191 183.916 201.807 184.363C201.423 184.81 201.137 185.333 200.968 185.897C200.926 185.088 200.873 184.469 200.835 183.607C200.802 182.835 200.556 182.087 200.126 181.445C199.696 180.803 199.098 180.291 198.397 179.966C196.656 179.16 196.324 178.786 196.258 177.846C196.27 177.852 196.278 177.854 196.291 177.86C197.174 178.214 198.151 178.259 199.063 177.988C199.975 177.717 200.768 177.146 201.314 176.367V176.367Z" fill="#C97200"/>
<path d="M234.017 168.777C229.783 168.777 225.753 170.198 222.671 172.932C222.662 172.94 222.654 172.947 222.645 172.955C219.594 175.706 217.822 179.639 217.822 183.734C217.822 188.176 219.779 192.395 223.106 195.485C224.634 196.939 225.81 198.065 226.604 198.831C227.004 199.218 227.312 199.517 227.512 199.715C227.579 199.782 227.644 199.859 227.708 199.933C227.81 200.077 227.821 200.076 227.847 200.135C227.819 200.125 227.033 200.028 225.791 199.574C225.781 199.57 225.771 199.567 225.761 199.563C224.937 199.268 224.071 199.036 222.994 199.036C221.278 199.036 219.387 199.977 218.314 201.206C217.267 202.385 216.641 204.095 216.641 205.613C216.641 208.964 218.843 212.024 221.609 213.746C221.625 213.757 221.642 213.767 221.658 213.777C224.418 215.443 227.678 216.183 231.149 216.183C236.121 216.183 240.764 214.646 244.416 211.61C244.425 211.603 244.433 211.596 244.441 211.589C248.086 208.513 250.267 204.132 250.267 199.482C250.267 196.49 249.37 193.553 247.701 191.069C246.534 189.304 244.696 187.375 242.509 185.271C243.795 184.982 245.066 184.284 245.897 183.377C246.98 182.196 247.624 180.445 247.624 178.898C247.624 175.658 245.441 172.787 242.83 171.163C240.253 169.538 237.199 168.778 234.017 168.778L234.017 168.777ZM233.152 177.268C232.982 177.379 232.808 177.461 232.641 177.595C231.14 178.802 230.421 180.873 230.421 182.441C230.421 185.502 232.136 187.151 233.86 188.684C237.525 191.951 239.89 194.535 240.679 195.729C240.686 195.74 240.693 195.751 240.701 195.762C241.5 196.949 241.838 198.055 241.838 199.482C241.838 201.8 241.134 203.343 239.016 205.135C237.057 206.76 234.82 207.584 231.854 207.704C232.575 207.37 233.268 206.971 233.864 206.432C233.866 206.43 233.869 206.428 233.871 206.426C235.498 204.947 236.489 202.598 236.489 200.438C236.489 198.156 235.482 196.09 234.131 194.457C233.634 193.841 233.677 193.956 233.442 193.723C233.197 193.481 232.874 193.166 232.459 192.766C231.63 191.965 230.44 190.827 228.88 189.342C228.868 189.33 228.855 189.318 228.842 189.306C226.921 187.522 226.252 185.966 226.252 183.734C226.252 181.76 226.767 180.595 228.28 179.227C229.648 178.018 231.13 177.408 233.152 177.268V177.268Z" fill="#C97200"/>
<path d="M253.725 169.04C250.809 169.04 247.68 170.476 245.99 172.935C244.301 175.394 243.829 178.284 243.829 181.522C243.829 185.178 244.479 191.732 245.628 201.172C244.789 202.365 244.167 203.744 244.167 205.482C244.167 209.026 246.607 212.243 249.642 213.941C249.658 213.95 249.675 213.959 249.691 213.967C252.728 215.615 256.302 216.278 260.305 216.278C264.366 216.278 268.097 215.375 271.107 213.263C271.11 213.26 271.114 213.257 271.118 213.254C274.164 211.101 276.163 207.504 276.163 203.794C276.163 201.972 275.861 200.047 274.527 198.335C273.192 196.623 270.862 195.755 268.967 195.755C266.774 195.755 265.365 196.468 263.539 197.381C263.539 197.381 263.538 197.381 263.538 197.381C262.94 197.68 262.565 197.786 262.068 197.981C262.906 190.327 263.396 184.893 263.396 181.86C263.396 178.546 262.966 175.657 261.376 173.149C259.787 170.642 256.651 169.04 253.725 169.04L253.725 169.04ZM254.171 177.431C254.187 177.435 254.142 177.482 254.257 177.663C254.486 178.024 254.965 179.437 254.965 181.86C254.965 184.004 254.506 189.522 253.671 197.209C252.799 189.629 252.259 183.841 252.259 181.522C252.259 179.249 252.734 178.006 252.938 177.709C253.142 177.412 252.854 177.47 253.725 177.47C254.08 177.47 254.156 177.428 254.171 177.431V177.431ZM253.999 203.813C254.342 204.548 254.804 205.249 255.448 205.789C256.912 207.015 258.573 207.279 259.968 207.279C262.702 207.279 264.544 206.303 267.308 204.921C267.439 204.856 267.493 204.854 267.616 204.8C267.466 205.354 267.119 205.757 266.257 206.366C264.993 207.251 263.139 207.847 260.305 207.847C257.274 207.847 255.121 207.315 253.732 206.568C253.068 206.195 252.768 206.003 252.656 205.872C252.708 205.784 252.765 205.663 253.043 205.375C253.472 204.93 253.799 204.397 253.999 203.813Z" fill="#C97200"/>
<path d="M95.7953 182.139L97.2014 186.751C98.5887 191.326 99.6386 193.613 100.351 193.613C100.988 193.613 101.513 192.582 101.926 190.52C102.376 188.42 102.601 185.739 102.601 182.477C102.601 181.615 102.582 180.902 102.544 180.34C102.432 178.615 102.376 177.378 102.376 176.628C102.376 174.04 103.501 172.747 105.75 172.747C107.363 172.747 108.488 173.591 109.125 175.278C109.912 177.34 110.306 180.096 110.306 183.546C110.306 186.995 109.819 190.82 108.844 195.019C107.906 199.181 106.706 202.799 105.244 205.874C103.444 209.661 101.438 211.555 99.2262 211.555C96.3765 211.555 93.8081 208.049 91.5209 201.037C89.4211 208.049 86.8152 211.555 83.7031 211.555C81.7159 211.555 79.9161 210.092 78.3038 207.168C74.7792 200.756 73.0169 193.444 73.0169 185.233C73.0169 181.596 73.6543 178.634 74.9292 176.346C76.2415 174.022 77.9101 172.859 79.9348 172.859C82.0721 172.859 83.1782 174.79 83.2532 178.652C83.3656 184.089 83.9843 188.551 85.1092 192.038C85.4091 192.901 85.7653 193.332 86.1778 193.332C86.5902 193.332 87.0402 192.563 87.5276 191.026L90.2273 182.646C90.9022 180.546 91.8958 179.496 93.2082 179.496C94.408 179.496 95.2704 180.377 95.7954 182.139H95.7953Z" fill="#501815"/>
<path d="M117.971 172.747C119.808 172.747 121.233 173.591 122.245 175.278C122.995 176.515 123.37 178.596 123.37 181.521C123.37 184.408 123.089 188.382 122.527 193.444C121.964 198.469 121.327 202.912 120.614 206.774C120.277 208.611 119.902 209.867 119.489 210.542C119.077 211.217 118.515 211.555 117.802 211.555C116.865 211.555 116.19 211.105 115.777 210.205C115.402 209.305 114.99 207.28 114.54 204.13C113.04 193.257 112.29 185.514 112.29 180.902C112.29 178.315 112.778 176.309 113.753 174.884C114.765 173.459 116.171 172.747 117.971 172.747Z" fill="#501815"/>
<path d="M138.095 185.964C139.595 186.264 140.645 186.77 141.245 187.483C142.145 188.57 142.595 190.257 142.595 192.544C142.595 197.156 141.92 202.124 140.57 207.449C139.858 210.223 138.883 211.611 137.645 211.611C136.933 211.611 136.389 211.273 136.014 210.598C135.677 209.886 135.246 208.311 134.721 205.874C133.483 200.175 132.865 195.656 132.865 192.319C132.865 190.595 133.09 189.32 133.54 188.495C134.027 187.632 134.908 186.901 136.183 186.301C133.671 186.526 132.077 186.639 131.402 186.639C128.74 186.639 126.64 185.776 125.103 184.052C123.303 182.027 122.404 179.721 122.404 177.134C122.404 175.859 122.703 174.79 123.303 173.928C123.903 173.066 124.653 172.634 125.553 172.634C125.966 172.634 126.547 172.728 127.297 172.916C129.846 173.553 132.021 173.872 133.821 173.872C135.246 173.872 137.608 173.647 140.907 173.197C142.295 173.009 143.27 172.916 143.832 172.916C146.269 172.916 148.294 173.89 149.906 175.84C151.556 177.79 152.381 180.227 152.381 183.152C152.381 185.701 151.537 186.976 149.85 186.976C149.4 186.976 148.875 186.883 148.275 186.695C146.063 186.02 143.945 185.683 141.92 185.683C140.87 185.683 139.595 185.776 138.095 185.964Z" fill="#501815"/>
<path d="M160.752 200.362C160.002 205.012 159.496 207.768 159.234 208.63C158.671 210.58 157.828 211.555 156.703 211.555C155.616 211.555 154.828 210.711 154.341 209.023C153.853 207.299 153.235 202.931 152.485 195.919C151.772 188.87 151.416 183.902 151.416 181.015C151.416 178.465 151.922 176.459 152.935 174.997C153.947 173.534 155.334 172.803 157.097 172.803C158.859 172.803 160.209 173.478 161.146 174.828C162.083 176.14 162.552 178.259 162.552 181.183C162.552 184.145 162.083 189.507 161.146 197.269C162.196 195.769 163.565 195.019 165.252 195.019C166.902 195.019 168.383 195.75 169.695 197.213C168.833 190.051 168.401 184.558 168.401 180.733C168.401 177.996 168.926 176.009 169.976 174.772C171.064 173.497 172.432 172.859 174.082 172.859C177.719 172.859 179.538 175.653 179.538 181.239C179.538 184.127 179.238 188.195 178.638 193.444C178.075 198.694 177.419 203.193 176.669 206.943C176.069 209.98 175.113 211.498 173.801 211.498C172.601 211.498 171.757 210.542 171.27 208.63C171.082 207.88 170.67 205.105 170.032 200.306C169.058 202.443 167.52 203.512 165.421 203.512C163.321 203.512 161.765 202.462 160.752 200.362Z" fill="#501815"/>
<path d="M207.53 175.784C210.68 176.534 213.08 177.303 214.729 178.09C216.379 178.84 217.935 179.871 219.398 181.183C222.735 184.258 224.403 188.551 224.403 194.063C224.403 199.387 222.791 203.681 219.566 206.943C216.342 210.167 212.048 211.78 206.687 211.78C203.35 211.78 200.35 211.067 197.688 209.642C195.026 208.218 193.695 206.605 193.695 204.805C193.695 204.281 193.882 203.831 194.257 203.456C194.669 203.043 195.176 202.837 195.776 202.837C196.338 202.837 197.463 203.25 199.15 204.074C199.263 204.15 199.994 204.45 201.344 204.974C199.994 203.549 199.038 196.388 198.475 183.489C195.401 182.065 193.863 179.89 193.863 176.965C193.863 175.69 194.126 174.641 194.651 173.816C195.176 172.991 195.813 172.578 196.563 172.578C196.863 172.578 197.575 172.803 198.7 173.253C199 173.365 199.338 173.496 199.713 173.647C200.575 172.26 201.756 171.566 203.256 171.566C205.431 171.566 206.855 172.972 207.53 175.784ZM206.855 186.808C206.555 193.107 205.974 197.981 205.112 201.431C204.737 202.931 204.399 203.943 204.099 204.468C203.799 204.955 203.368 205.293 202.806 205.48C203.518 205.705 204.212 205.818 204.887 205.818C207.624 205.818 209.78 204.937 211.355 203.175C212.967 201.375 213.773 198.956 213.773 195.919C213.773 193.594 213.267 191.776 212.255 190.463C211.28 189.114 209.48 187.895 206.855 186.808Z" fill="#501815"/>
<path d="M224.842 202.949C225.217 202.949 225.667 203.043 226.192 203.231C227.729 203.793 228.929 204.074 229.791 204.074C231.066 204.074 232.097 203.718 232.885 203.006C233.71 202.256 234.122 201.3 234.122 200.137C234.122 199.05 233.653 197.944 232.716 196.819C232.566 196.631 230.935 195.057 227.823 192.095C225.198 189.657 223.886 186.77 223.886 183.433C223.886 180.396 225.029 177.846 227.317 175.784C229.641 173.722 232.491 172.691 235.866 172.691C238.415 172.691 240.609 173.272 242.446 174.434C244.321 175.597 245.258 176.984 245.258 178.596C245.258 179.234 245.052 179.777 244.64 180.227C244.227 180.677 243.721 180.902 243.121 180.902C242.821 180.902 242.427 180.827 241.94 180.677C240.628 180.265 239.671 180.059 239.071 180.059C237.347 180.059 236.484 180.752 236.484 182.14C236.484 183.002 237.159 184.033 238.509 185.233C242.296 188.608 244.808 191.232 246.046 193.107C247.283 194.944 247.902 196.969 247.902 199.181C247.902 202.668 246.458 205.63 243.571 208.068C240.684 210.467 237.159 211.667 232.997 211.667C230.11 211.667 227.673 211.067 225.686 209.867C223.698 208.63 222.705 207.111 222.705 205.312C222.705 204.674 222.911 204.131 223.323 203.681C223.736 203.193 224.242 202.949 224.842 202.949Z" fill="#501815"/>
<path d="M251.864 201.993C250.552 191.42 249.896 184.445 249.896 181.071C249.896 175.559 251.789 172.803 255.576 172.803C259.213 172.803 261.032 175.672 261.032 181.408C261.032 184.258 260.526 190.182 259.513 199.181C259.438 199.856 259.401 200.325 259.401 200.587C259.401 201.937 260.207 202.612 261.819 202.612C262.907 202.612 264.725 201.974 267.275 200.7C268.85 199.912 270.031 199.519 270.818 199.519C272.805 199.519 273.799 200.793 273.799 203.343C273.799 205.818 272.712 207.824 270.537 209.361C268.4 210.861 265.606 211.611 262.157 211.611C258.632 211.611 255.764 211.011 253.552 209.811C251.339 208.574 250.233 206.98 250.233 205.03C250.233 204.13 250.777 203.118 251.864 201.993H251.864Z" fill="#501815"/>
<g filter="url(#filter0_f)">
<path d="M237.1 175.023C236.833 176.658 235.515 176.249 233.49 177.564C232.645 178.112 230.04 180.554 229.128 178.475C228.784 178.707 228.541 179.451 228.29 179.781C227.701 180.554 229.505 179.88 229.228 180.712C229.069 181.191 228.69 181.981 227.861 181.743C227.61 183.848 226.419 184.876 226.403 184.183C226.377 183.075 226.059 180.329 227.149 178.393C228.456 176.072 231.393 174.97 233.089 174.622C234.392 174.354 236.699 174.257 237.1 175.023Z" fill="white"/>
</g>
<g filter="url(#filter1_f)">
<path d="M196.936 206.986C197.944 206.066 198.587 207.003 200.567 207.188C201.393 207.265 204.323 207.018 203.851 208.827C204.192 208.853 204.728 208.496 205.06 208.411C205.835 208.212 204.325 207.726 204.928 207.33C205.276 207.101 205.925 206.785 206.339 207.362C207.576 206.13 208.87 206.073 208.527 206.53C207.978 207.259 206.781 209.196 205.088 209.89C203.057 210.723 200.597 209.935 199.324 209.294C198.345 208.801 196.804 207.685 196.936 206.986Z" fill="white"/>
</g>
<path d="M239.69 178.344C240.413 178.344 240.998 177.758 240.998 177.035C240.998 176.312 240.413 175.726 239.69 175.726C238.967 175.726 238.381 176.312 238.381 177.035C238.381 177.758 238.967 178.344 239.69 178.344Z" fill="white"/>
<path d="M210.832 210.41C211.446 210.41 211.944 209.912 211.944 209.298C211.944 208.683 211.446 208.185 210.832 208.185C210.217 208.185 209.719 208.683 209.719 209.298C209.719 209.912 210.217 210.41 210.832 210.41Z" fill="white"/>
<path d="M77.6952 190.06C78.3979 190.505 78.2363 191.898 78.4812 193.403C78.1746 194.401 83.5807 197.354 81.4649 198.724C84.0976 200.782 84.1346 201.338 83.2099 201.06C81.5078 200.549 75.6734 195.034 76.3477 192.849C77.0084 191.137 77.2422 190.097 77.6952 190.06Z" fill="white"/>
<path d="M237.293 208.505C237.33 207.673 238.579 207.084 239.735 206.09C240.747 205.832 240.444 199.678 242.717 200.768C243.099 197.448 243.555 197.128 243.801 198.061C244.253 199.78 242.591 207.633 240.375 208.199C238.57 208.528 237.562 208.871 237.293 208.505Z" fill="white"/>
<path d="M97.2945 209.414C97.4003 208.456 98.9325 207.916 100.376 206.896C101.572 206.708 101.9 199.574 104.403 201.081C105.208 197.293 105.767 196.973 105.948 198.077C106.28 200.11 103.503 208.99 100.884 209.4C98.7652 209.581 97.5639 209.867 97.2945 209.418V209.414Z" fill="white"/>
<path d="M121.606 183.193C120.859 182.747 120.989 181.286 120.692 179.717C120.987 178.665 117.324 177.577 119.499 176.085C116.689 174.005 116.398 173.538 117.373 173.803C119.167 174.291 122.696 176.863 122.052 179.168C121.407 180.977 121.968 182.229 121.497 182.282L121.606 183.193Z" fill="white"/>
<path d="M178.537 179.463C178.537 180.587 178.107 178.537 176.778 178.537C175.449 178.537 175.021 178.643 175.021 177.519C175.021 176.395 173.321 174.465 174.65 174.465C175.979 174.465 178.537 178.338 178.537 179.463Z" fill="white"/>
<defs>
<filter id="filter0_f" x="226.308" y="174.395" width="10.824" height="10.0353" filterUnits="userSpaceOnUse" color-interpolation-filters="sRGB">
<feFlood flood-opacity="0" result="BackgroundImageFix"/>
<feBlend mode="normal" in="SourceGraphic" in2="BackgroundImageFix" result="shape"/>
<feGaussianBlur stdDeviation="0.0159593" result="effect1_foregroundBlur"/>
</filter>
<filter id="filter1_f" x="196.604" y="200.9" width="12.1009" height="11.994" filterUnits="userSpaceOnUse" color-interpolation-filters="sRGB">
<feFlood flood-opacity="0" result="BackgroundImageFix"/>
<feBlend mode="normal" in="SourceGraphic" in2="BackgroundImageFix" result="shape"/>
<feGaussianBlur stdDeviation="0.0138174" result="effect1_foregroundBlur"/>
</filter>
</defs>
</svg>
